<?xml version="1.0" ?><svg viewBox="0 0 512 512" xmlns="http://www.w3.org/2000/svg"><g id="solar_energy"><path d="M305.7163,246H278.66l.0511-72.7056a10,10,0,0,0-17.9819-6.0312l-62.4277,82.7124A10,10,0,0,0,206.2837,266H233.34l-.0511,72.7056a10,10,0,0,0,17.9819,6.0312l62.4277-82.7124A10,10,0,0,0,305.7163,246ZM253.31,308.8359l.0371-52.8291h0l0-.0068a10,10,0,0,0-10-10H226.36L258.69,203.1641l-.0371,52.8291A10,10,0,0,0,268.6465,266H285.64Z"/><path d="M256,120.0786c-74.9473,0-135.9214,60.9741-135.9214,135.9214S181.0527,391.9214,256,391.9214,391.9214,330.9473,391.9214,256,330.9473,120.0786,256,120.0786Zm0,251.8428A115.9214,115.9214,0,1,1,371.9214,256,116.0525,116.0525,0,0,1,256,371.9214Z"/><path d="M256,106.209a10,10,0,0,0,10-10V38.0356a10,10,0,1,0-20,0V96.209A10,10,0,0,0,256,106.209Z"/><path d="M256,405.791a10,10,0,0,0-10,10v58.1734a10,10,0,1,0,20,0V415.791A10,10,0,0,0,256,405.791Z"/><path d="M96.209,246H38.0356a10,10,0,0,0,0,20H96.209a10,10,0,0,0,0-20Z"/><path d="M473.9644,246H415.791a10,10,0,1,0,0,20h58.1734a10,10,0,1,0,0-20Z"/><path d="M374.8208,360.6782a10,10,0,0,0-14.1426,14.1426L381.8276,395.97A10,10,0,1,0,395.97,381.8276Z"/><path d="M137.1792,151.3218a10,10,0,0,0,14.1426-14.1426L130.1724,116.03A10,10,0,0,0,116.03,130.1724Z"/><path d="M381.8276,116.03l-21.1494,21.1494a10,10,0,0,0,14.1426,14.1426L395.97,130.1724A10,10,0,1,0,381.8276,116.03Z"/><path d="M137.1792,360.6782,116.03,381.8276A10,10,0,0,0,130.1724,395.97l21.1494-21.1494a10,10,0,0,0-14.1426-14.1426Z"/></g></svg>