<?xml version="1.0" ?><svg id="Layer_1" style="enable-background:new 0 0 70 70;" version="1.1" viewBox="0 0 70 70" xml:space="preserve" xmlns="http://www.w3.org/2000/svg" xmlns:xlink="http://www.w3.org/1999/xlink"><g><g><g><g><g><g><g><g><g><g><g><g><path d="M12,36H8.08v-4.91c0.6-0.8,1.38-1.57,2.46-2.33c0.46-0.17,0.94-0.32,1.42-0.47v7.05              C11.96,35.56,11.97,35.78,12,36z"/><path d="M27.25,57.17h-2.79c0-4.4-3.58-7.98-7.98-7.98c-4.33,0-7.87,3.47-7.97,7.77c-5.23-1-5.39-5.21-5.39-5.21              c-0.31-3.92-0.03-7.16,0.86-9.97C4.32,41.92,4.69,42,5.08,42l16.36,0.09v2.92c0,0.36,0.19,0.68,0.5,0.86              C21.99,45.91,27.25,49.1,27.25,57.17z"/><path d="M18.71,40.09h2.73V26.87c-2.66,0.03-5.17,0.34-7.48,0.88v7.6C13.96,37.96,16.09,40.09,18.71,40.09z"/><path d="M23.44,40.09h23.07v-2.6c-5.29-5.63-9.67-8.56-17.29-9.95c-1.97-0.36-3.9-0.55-5.78-0.63V40.09z"/><path d="M46.51,45.15v-3.06H23.44v2.39c1.5,1.09,5.81,4.91,5.81,12.69h9.25C38.5,47.83,44.2,45.65,46.51,45.15z"/></g><circle cx="16.48" cy="57.17" r="5.98"/><path d="M58.12,57.18c0,3.29-2.68,5.97-5.99,5.97c-3.29,0-5.97-2.68-5.97-5.97c0-3.3,2.68-5.98,5.97-5.98             C55.44,51.2,58.12,53.88,58.12,57.18z"/></g></g></g><g><path d="M6.08,20.82V38h6.43c0.32,0.75,0.77,1.43,1.33,2H5.08c-0.55,0-1-0.45-1-1V20.82c0-3.7,3.01-6.71,6.72-6.71h14.48v2           H10.8C8.2,16.11,6.08,18.22,6.08,20.82z"/></g></g><g><path d="M63.88,49.38c0.87,0.29,1.77,0.35,2.52,0.17l0.04-0.01c-0.14-0.56-0.34-1.1-0.69-1.65          c-0.53-0.85-1.22-1.57-2.06-2.1c-0.49-0.31-1.06-0.64-1.69-0.99l-0.16,0.18c-0.03,0.03-0.05,0.05-0.08,0.08          c-0.31,0.27-0.49,0.53-0.59,0.82C60.74,47.13,61.99,48.74,63.88,49.38z"/><path d="M66.74,51.52c-0.4,0.08-0.81,0.13-1.23,0.13c-0.74,0-1.51-0.13-2.25-0.37c-3.03-1.02-4.77-3.68-3.98-6.05          c0.18-0.53,0.48-0.99,0.9-1.42c-3.87-2.02-8.89-4.27-11.66-5.02V46c0,0.54-0.42,0.98-0.96,1          c-0.28,0.02-7.05,0.47-7.05,10.17h3.65c0.01-4.4,3.58-7.97,7.97-7.97c4.41,0,7.98,3.57,7.99,7.97h3.8          c1.88,0,3.34-1.68,3.05-3.53C66.84,52.87,66.79,52.18,66.74,51.52z"/></g></g><g><path d="M36.75,8.79v12.64h-6.28c-1.76,0-3.19-1.43-3.19-3.19v-6.25c0-1.76,1.43-3.19,3.19-3.19H36.75z"/><path d="M43.15,21.94V8.27c0-0.78-0.64-1.42-1.42-1.42h-1.56c-0.78,0-1.42,0.64-1.42,1.42v13.67c0,0.78,0.64,1.42,1.42,1.42         h1.56C42.52,23.36,43.15,22.72,43.15,21.94z"/></g></g></g></g></g><polygon points="61.1,17.95 64.56,21.65 54.78,29.67 58.54,22.7 55.09,19 64.87,10.98   "/></g><g><path d="M53.44,19.38c0,0.73-0.59,1.32-1.32,1.32l-6.97,0v-2.64h6.97C52.85,18.05,53.44,18.65,53.44,19.38z"/><path d="M52.12,12.15h-6.97V9.51h6.97c0.73,0,1.32,0.59,1.32,1.32C53.44,11.56,52.85,12.15,52.12,12.15z"/></g></g></svg>