<?xml version="1.0" ?><svg id="Layer_1" style="enable-background:new 0 0 24 24;" version="1.1" viewBox="0 0 24 24" xml:space="preserve" xmlns="http://www.w3.org/2000/svg" xmlns:xlink="http://www.w3.org/1999/xlink"><style type="text/css">
	.st0{fill:none;stroke:#000000;stroke-width:1.5;stroke-linecap:round;stroke-linejoin:round;stroke-miterlimit:10;}
</style><g><g><g><path class="st0" d="M9.2,17.8C8.9,16,8.1,14.3,6.8,13c-1.3-1.3-2.1-3.1-2.1-5c0-4.3,3.7-7.6,8-7.2c3.3,0.3,5.9,3,6.4,6.2     c0.3,2.2-0.4,4.3-1.8,5.8c-1.3,1.4-2.2,3.1-2.6,5"/></g><g><path d="M9.7,22.3c0.3,1,1.2,1.7,2.3,1.7s2-0.7,2.3-1.7H9.7z"/></g><g><path class="st0" d="M15.3,22H8.7C8.3,22,8,21.7,8,21.3v-2.7c0-0.4,0.3-0.7,0.7-0.7h6.5c0.4,0,0.7,0.3,0.7,0.7v2.7     C16,21.7,15.7,22,15.3,22z"/></g></g><g><line class="st0" x1="12" x2="12" y1="17.8" y2="9.9"/></g><g><polyline class="st0" points="9.1,9.9 10.6,8.5 12,9.9 13.4,8.5 14.9,9.9   "/></g></g></svg>