<?xml version="1.0" ?><svg viewBox="0 0 512 512" xmlns="http://www.w3.org/2000/svg"><g id="think_green"><path d="M364.4707,78.8476c-25.4365-25.9595-58.9521-40.4883-94.373-40.91A134.8425,134.8425,0,0,0,178.3105,72.43c-28.083,25.2041-44.2529,61.8975-44.3642,100.6685l-.0391,12.3169-45.2959,66.83a9.9994,9.9994,0,0,0,8.2774,15.61h36.76l-.165,56.0781a27.3581,27.3581,0,0,0,27.3584,27.44H205.999v89.3721a10,10,0,0,0,20,0V341.3725a10,10,0,0,0-10-10H160.8418a7.3587,7.3587,0,0,1-7.3584-7.3809l.1943-66.1074a10.001,10.001,0,0,0-10-10.0293H115.7471L152.1748,194.11a10.0061,10.0061,0,0,0,1.7227-5.5791l.0488-15.3721c.0947-33.125,13.8447-64.414,37.7226-85.8442a114.6952,114.6952,0,0,1,76.8028-29.3862q.6929,0,1.3877.0083c62.0752.7392,114.1045,53.833,113.6152,115.9394a113.6766,113.6766,0,0,1-12.86,51.9761,200.098,200.098,0,0,0-22.65,91.7524v123.14a10,10,0,0,0,20,0v-123.14a180.0275,180.0275,0,0,1,20.4-82.5366,133.5068,133.5068,0,0,0,15.11-61.0347C403.7529,138.6064,389.9014,104.8022,364.4707,78.8476Z"/><path d="M278.3213,153.6445a10,10,0,0,0-14.1426,0l-61.5976,61.5976a10,10,0,0,0,14.1425,14.1426l61.5977-61.5977A10,10,0,0,0,278.3213,153.6445Z"/><path d="M326.002,113.9086a9.9991,9.9991,0,0,0-11.7-7.9443l-64.7881,12.3882a53.9454,53.9454,0,0,0-36.4063,25.1006,55.2138,55.2138,0,0,0-5.9258,44.2636,10,10,0,0,0,19.1836-5.6591,35.1741,35.1741,0,0,1,3.8184-28.1934A34.1751,34.1751,0,0,1,253.27,137.997l50.3218-9.6221L293.97,178.6967a34.1767,34.1767,0,0,1-15.8681,23.0864,35.1661,35.1661,0,0,1-28.1924,3.8179,10,10,0,0,0-5.66,19.1826,54.2777,54.2777,0,0,0,15.3662,2.2115,55.5758,55.5758,0,0,0,28.8975-8.1353,53.9483,53.9483,0,0,0,25.1016-36.4072l12.1-63.2848h-.1338A9.9384,9.9384,0,0,0,326.002,113.9086Z"/></g></svg>