<?xml version="1.0" ?><svg data-name="Layer 1" id="Layer_1" viewBox="0 0 32 32" xmlns="http://www.w3.org/2000/svg"><title/><path d="M15,12V8a1,1,0,0,1,2,0v4a1,1,0,0,0,.61.92l5.78,2.48a1,1,0,0,1,.61.92v1.26l-5.59-2,3.3,3.31,2.95,1.05a1,1,0,0,0,.92-.12A1,1,0,0,0,26,19V16.32a3,3,0,0,0-1.82-2.76L19,11.34V8a3,3,0,0,0-6,0v2.17l2,2A.86.86,0,0,0,15,12Z"/><path d="M16,19.73A.75.75,0,0,0,16,20a.75.75,0,0,0,0-.26l-.38-1.32L13,15.8,8,17.58V16.32a1,1,0,0,1,.61-.92l2.77-1.19L9.86,12.69l-2,.87A3,3,0,0,0,6,16.32V19a1,1,0,0,0,.42.82,1,1,0,0,0,.92.12l6-2.14.51,1.77-1.5,1A3,3,0,0,0,11,23.07V26a1,1,0,0,0,1.6.8L16,24.25l3.4,2.55a1,1,0,0,0,1.05.09A1,1,0,0,0,21,26V23.82l-4.77-4.76Zm.41,1.1L19,22.54V24l-2.4-1.8a1,1,0,0,0-1.2,0L13,24v-.93a1,1,0,0,1,.45-.83l2.1-1.41A1,1,0,0,0,16,20,1,1,0,0,0,16.45,20.83Z"/><path d="M26.11,24.69,7,5.58a1.06,1.06,0,0,0-1.5-.09A1.06,1.06,0,0,0,5.58,7L24.69,26.11a1,1,0,1,0,1.42-1.42Z"/></svg>