<?xml version="1.0" ?><svg data-name="Слой 1" id="Слой_1" viewBox="0 0 32 32" xmlns="http://www.w3.org/2000/svg"><path d="M16.0492,4.3069a12.3192,12.3192,0,0,1,11.897,15.4883l-1.0044-1.6446a.4852.4852,0,1,0-.8281.5059l1.5625,2.5586c.0166.0273.0449.04.0659.063.0147.0161.0171.039.0337.0532a.45.45,0,0,0,.0557.0327.5185.5185,0,0,0,.0527.0308.4789.4789,0,0,0,.2031.0517l.003.001.01-.0029a.478.478,0,0,0,.2251-.0581L31.03,19.8879a.4856.4856,0,1,0-.4707-.85l-1.6494.9141a13.2937,13.2937,0,0,0-12.86-16.6162.4854.4854,0,0,0,0,.9707Z"/><path d="M1.2055,19.7419a.4845.4845,0,0,0,.3838-.1879L2.8344,17.95a13.293,13.293,0,0,0,17.335,11.3.4853.4853,0,1,0-.3008-.9229A12.3226,12.3226,0,0,1,3.7807,17.6458l1.4639,1.1406a.4856.4856,0,1,0,.5976-.7656l-2.291-1.7852-.0005-.0005-.0005,0a.48.48,0,0,0-.2217-.0888.4957.4957,0,0,0-.062-.0044.475.475,0,0,0-.2.0361c-.0088.0034-.0185.0005-.0268.0044l-.0069.0068a.4719.4719,0,0,0-.164.1319L.8217,18.9587a.4856.4856,0,0,0,.3838.7832Z"/><path d="M16.0492,25.8928a9.2744,9.2744,0,1,0-9.2744-9.2744A9.2843,9.2843,0,0,0,16.0492,25.8928Zm.6485-11.0009h2.6689L15.81,22.5139v-4.98a.4851.4851,0,0,0-.4854-.4854H12.7719l3.44-6.5469v3.9053A.4847.4847,0,0,0,16.6977,14.8919Zm7.6543,1.7265a8.3126,8.3126,0,0,1-8.3028,8.3032c-.0957,0-.1884-.0112-.2832-.0141L20.57,14.6116a.4862.4862,0,0,0-.4405-.6905H17.183V8.5335a.4779.4779,0,0,0-.0229-.1348A8.309,8.309,0,0,1,24.352,16.6184ZM16.0492,8.3157c.07,0,.1387.0088.209.01l-4.72,8.982a.485.485,0,0,0,.43.7114h2.8711v6.6841a.4687.4687,0,0,0,.0215.123A8.2977,8.2977,0,0,1,16.0492,8.3157Z"/></svg>